<svg height="512" viewBox="0 0 64 64" width="512" xmlns="http://www.w3.org/2000/svg"><g id="flat"><path d="m21 8h22a16 16 0 0 1 16 16 0 0 0 0 1 0 0h-54a0 0 0 0 1 0 0 16 16 0 0 1 16-16z" fill="#ad6327"/><path d="m21 40h22a16 16 0 0 1 16 16 0 0 0 0 1 0 0h-54a0 0 0 0 1 0 0 16 16 0 0 1 16-16z" fill="#ad6327" transform="matrix(-1 0 0 -1 64 96)"/><path d="m55 32h-45a2.882 2.882 0 0 1 -3-3v-2a2.652 2.652 0 0 1 3-3h44a2.652 2.652 0 0 1 3 3v2c0 2-1 3-2 3z" fill="#995f5b"/><rect fill="#66342e" height="8" rx="3" width="50" x="7" y="32"/><g fill="#ffd782"><path d="m42 51h-12a1 1 0 0 1 0-2h12a1 1 0 0 1 0 2z"/><path d="m26 51h-4a1 1 0 0 1 0-2h4a1 1 0 0 1 0 2z"/><path d="m19 15h2v2h-2z"/><path d="m23 12h2v2h-2z"/><path d="m27 15h2v2h-2z"/><path d="m31 12h2v2h-2z"/><path d="m35 15h2v2h-2z"/><path d="m39 12h2v2h-2z"/><path d="m43 15h2v2h-2z"/><path d="m26 32h-8v10a2 2 0 0 0 2 2 2 2 0 0 0 2-2v-4a2 2 0 0 1 2-2 2 2 0 0 1 2 2v1a3 3 0 0 0 3 3 3 3 0 0 0 3-3v-7z"/></g><path d="m60 28c-7 0-7 4-14 4s-7-4-14-4-7 4-14 4-7-4-14-4h-1a4 4 0 0 1 4-4h50a4 4 0 0 1 4 4z" fill="#8ec13f"/></g></svg>