<svg height="512" viewBox="0 0 58 58" width="512" xmlns="http://www.w3.org/2000/svg"><g id="Page-1" fill="none" fill-rule="evenodd"><g id="030---Pasta" fill-rule="nonzero" transform="translate(-1 -1)"><path id="Shape" d="m41.11 23.91c4.29-1.13 3.42-4.79 6.67-4.79 2.46 0 2.46 2.21 4.92 2.21s4-3.55 5.74-1.89-1.97 3.13-1.97 5.48 2.31 2.34 2.31 4.69-2.31 2.34-2.31 4.69 2.31 2.35 2.31 4.69-2.31 2.35-2.31 4.69 2.31 2.35 2.31 4.7-2.95 2.74-2.27 5c.86 2.84 3.67 3.51 1.93 5.18s-3.27-1.89-5.73-1.89-2.46 2.21-4.92 2.21-2.45-2.21-4.91-2.21-2.46 2.21-4.92 2.21-2.45-2.21-4.91-2.21-2.46 2.21-4.92 2.21-2.46-2.21-4.92-2.21-4 3.55-5.75 1.89c-1.73-1.66 1.98-3.13 1.98-5.48s-2.31-2.34-2.31-4.69c0-3.39 4.85-1.87.44-9.68z" fill="#f29c1f"/><path id="Shape" d="m42.44 40.56c-1.73 1.66-3.27-1.89-5.73-1.89s-2.46 2.21-4.92 2.21-2.45-2.21-4.91-2.21-2.46 2.21-4.92 2.21c-2.26 0-2.44-1.89-4.39-2.17-.1717228-.0293903-.3458025-.042781-.52-.04-2.46 0-2.46 2.21-4.92 2.21s-2.46-2.21-4.92-2.21-4 3.55-5.75 1.89c-1.73-1.66 1.98-3.13 1.98-5.48s-2.31-2.34-2.31-4.69 2.31-2.34 2.31-4.69-2.31-2.35-2.31-4.69 2.31-2.35 2.31-4.69-2.31-2.35-2.31-4.7 2.31-2.35 2.31-4.7-3.72-3.81-1.98-5.48 3.28 1.89 5.74 1.89 2.46-2.21 4.91-2.21 2.46 2.21 4.92 2.21 2.46-2.21 4.91-2.21 2.46 2.21 4.92 2.21 2.46-2.21 4.92-2.21 2.46 2.21 4.92 2.21 4-3.55 5.74-1.89-1.97 3.13-1.97 5.48 2.31 2.34 2.31 4.69-2.31 2.34-2.31 4.69 2.31 2.35 2.31 4.69c0 1.55-1 2.07-1.67 2.92-.4284349.4884607-.6569655 1.1204906-.64 1.77 0 2.35 2.31 2.35 2.31 4.7s-2.95 2.74-2.27 5c.86 2.84 3.67 3.51 1.93 5.18z" fill="#f3d55b"/><path id="Shape" d="m21.957 33.955c-1.022 0-2.045-.031-3.061-.092-2.4687163-.129991-4.9259135-.4256565-7.355-.885-.8127427-.1539869-1.4494666-.7879373-1.607-1.6-.46078418-2.4343337-.75745259-4.896882-.888-7.371-.12149899-2.0348546-.12149899-4.0751454 0-6.11.13001719-2.468052.42568281-4.9245823.885-7.353.1536198-.81313013.7876462-1.45032662 1.6-1.608 2.4350043-.46079856 4.8982187-.75746672 7.373-.888.3572656-.01786328.6969226.15622929.8910254.45669872.1941029.30046944.2131628.68166729.05 1.00000001-.1631627.31833272-.4837598.52543797-.8410254.54330127-2.3831237.1259049-4.7551163.4115462-7.1.855-.4510112 2.3463251-.7396959 4.7209571-.864 7.107-.1174993 1.9615753-.1174993 3.9284247 0 5.89.1272923 2.3832597.4146063 4.7552709.86 7.1 2.3463582.4511728 4.7209554.7405215 7.107.866 1.9619239.1169991 3.9290761.1169991 5.891 0 2.3831147-.1260096 4.7551003-.4116501 7.1-.855.4518189-2.3462276.7408417-4.7208925.865-7.107.1174993-1.9615753.1174993-3.9284247 0-5.89-.1253731-2.3851558-.4110176-4.7591795-.855-7.106-2.3463612-.4511541-4.720957-.7405027-7.107-.866-.5513863-.0274859-.9761841-.49659873-.949-1.048.009719-.26621742.1266378-.51720176.324188-.69591969.1975502-.17871794.4589546-.26999168.724812-.25308031 2.4713938.13024362 4.9312571.42624238 7.363.886.8132468.15376682 1.4506739.78762855 1.609 1.6.4601036 2.4344098.7564351 4.8969347.887 7.371.121499 2.0348546.121499 4.0751454 0 6.11-.1303391 2.4683041-.4256652 4.9251232-.884 7.354-.1549016.8124543-.7883284 1.4490483-1.6 1.608-2.434397.4601867-4.8969274.7565189-7.371.887-1.005.063-2.027.094-3.048.094z" fill="#e4c05c"/><path id="Shape" d="m35 51.86c-2.50503-.1239727-4.9985747-.4200038-7.463-.886-.8169123-.1608084-1.4518755-.8056928-1.6-1.625-.3655272-1.8975786-.6265868-3.8137961-.782-5.74-.0436305-.5506279.3673721-1.0323695.918-1.076s1.0323695.3673721 1.076.918c.1507696 1.8593496.4028104 3.7090953.755 5.541 2.3458538.4570653 4.7211263.747458 7.108.869.5457968.0252536.9738861.4776411.969 1.024-.0038435.5392183-.4417683.9744646-.981.975z" fill="#e57e25"/><path id="Shape" d="m41 51.86c-.5522847.013531-1.010969-.4232153-1.0245-.9755s.4232153-1.010969.9755-1.0245c2.3684965-.1260356 4.7258242-.4113471 7.056-.854.4446509-2.3446985.730302-4.716772.855-7.1.1174993-1.9615753.1174993-3.9284247 0-5.89-.1234193-2.3889651-.4090776-4.7667787-.855-7.117l-.169-.04c-.6-.108-1.193-.214-1.8-.3-.3533357-.0535898-.6512415-.2916112-.7814992-.6244038-.1302576-.3327926-.073078-.7097973.15-.989.2230781-.2792028.5781635-.4181861.9314992-.3645962.621.093 1.233.2 1.853.314l.175.031c.8194805.1568387 1.4587447.8004705 1.61 1.621.459708 2.4316636.7547122 4.8915911.883 7.363.121499 2.0348546.121499 4.0751454 0 6.11-.1297815 2.4654242-.4254505 4.9193096-.885 7.345-.1492282.8116043-.7800286 1.4491491-1.59 1.607-2.42165.4597579-4.8715362.7557621-7.333.886z" fill="#e57e25"/><path id="Shape" d="m24.715 29.873c-.5522847.013531-1.010969-.4232153-1.0245-.9755-.0135309-.5522847.4232153-1.010969.9755-1.0245 1.254-.063 2.547-.182 3.855-.355.171-1.3.289-2.577.35-3.813.0178633-.3572656.2249685-.6778627.5433013-.8410254.3183327-.1631628.6995305-.1441029 1 .05.3004694.1941028.474562.5337598.4566987.8910254-.077 1.533-.236 3.13-.473 4.744-.0641817.436796-.407204.7798183-.844.844-1.622.239-3.232.4-4.786.477z" fill="#b19046"/><path id="Shape" d="m14.041 19.154h-.051c-.2649749-.0131955-.5138463-.1311453-.691832-.327886-.1779857-.1967408-.2704962-.4561457-.257168-.721114.077-1.534.236-3.13.474-4.745.0644712-.4360947.4069053-.7785288.843-.843 1.616-.239 3.212-.4 4.746-.474.3572656-.0178633.6969226.1562293.8910254.4566987.1941029.3004695.2131628.6816673.05 1-.1631627.3183328-.4837598.525438-.8410254.5433013-1.235.062-2.516.18-3.814.352-.172 1.3-.289 2.577-.351 3.813-.028679.5303185-.4669067.9457127-.998.946z" fill="#b19046"/><path id="Shape" d="m40.8 47.865c-.5522847.013531-1.010969-.4232153-1.0245-.9755s.4232153-1.010969.9755-1.0245c1.216-.061 2.479-.178 3.765-.348.172-1.294.29-2.572.351-3.808.0102649-.2660244.1273455-.5166764.3247679-.6952787s.4585122-.2700703.7242321-.2537213c.2649749.0131955.5138463.1311453.691832.327886.1779857.1967408.2704962.4561457.257168.721114-.077 1.535-.236 3.129-.474 4.739-.0640678.4364834-.4065928.7794148-.843.844-1.6.236-3.185.395-4.7.47z" fill="#d25627"/></g></g></svg>