<svg id="Layer_1" height="512" viewBox="0 0 512 512" width="512" xmlns="http://www.w3.org/2000/svg" data-name="Layer 1"><path d="m291.6 69.33a27.331 27.331 0 0 1 .99 23.38 26.95 26.95 0 0 1 -4.43 7.18 27.4 27.4 0 0 1 -13.1 8.53c-56.41 16.84-106.6 53.06-141.33 102.01-34.22 48.22-51.39 104.3-49.66 162.18a28.394 28.394 0 0 1 -.96 8.2 27.655 27.655 0 0 1 -8.45 13.57 27.425 27.425 0 0 1 -45.44-22.39 386.841 386.841 0 0 1 70.73-198.12c34.88-49.16 87.01-89.26 154.92-119.17a27.634 27.634 0 0 1 35.51 12.32z" fill="#e0a96d"/><path d="m481.94 445.02-193.77-345.12-.01-.01a27.4 27.4 0 0 1 -13.1 8.53c-56.41 16.84-106.6 53.06-141.33 102.01-34.22 48.22-51.39 104.3-49.66 162.18a28.394 28.394 0 0 1 -.96 8.2l.72.13 387.64 78.65a10.421 10.421 0 0 0 10.47-14.57z" fill="#f8d454"/><path d="m212.74 205.39a65.965 65.965 0 1 1 15.63 91.96 66.226 66.226 0 0 1 -15.63-91.96z" fill="#e75163"/><path d="m226.96 215.43a48.558 48.558 0 1 1 11.51 67.69 48.743 48.743 0 0 1 -11.51-67.69z" fill="#eb6c4f"/><path d="m388.81 335.5a10.7 10.7 0 1 1 -16.84 13.21l-14.61-18.61a10.7 10.7 0 0 1 16.84-13.22z" fill="#db9953"/><path d="m458.47 403.21-.26.15a26.2 26.2 0 1 1 -29.15-42.86 27.116 27.116 0 0 1 4.38-1.66l.09-.05z" fill="#cc5459"/><path d="m351.26 405.42a46.861 46.861 0 0 1 8.7 30.99l-.11.53-91.98-18.66a47.359 47.359 0 0 1 83.39-12.86z" fill="#eb6c4f"/><path d="m230.41 355.26a11.268 11.268 0 1 1 -14.35 6.93 11.272 11.272 0 0 1 14.35-6.93z" fill="#636384"/><path d="m153.55 337.56a18.658 18.658 0 1 1 -26.01 4.48 18.582 18.582 0 0 1 26.01-4.48z" fill="#636384"/><path d="m305.06 138.42a27.869 27.869 0 0 0 3.9-1.495l-20.79-37.025-.01-.01a27.4 27.4 0 0 1 -13.1 8.53c-56.41 16.84-106.6 53.06-141.33 102.01-34.22 48.22-51.39 104.3-49.66 162.18a28.394 28.394 0 0 1 -.96 8.2l.72.13 30.236 6.135c1.5-52.347 18.515-102.753 49.664-146.645 34.73-48.95 84.92-85.17 141.33-102.01z" fill="#dbb849"/><path d="m171.05 273.17a10.7 10.7 0 0 1 -8.93 12.22 10.406 10.406 0 0 1 -1.66.13 10.7 10.7 0 0 1 -10.57-9.05l-3.64-23.38a10.692 10.692 0 0 1 8.92-12.23 10.406 10.406 0 0 1 1.66-.13 10.7 10.7 0 0 1 10.57 9.06z" fill="#db9953"/><path d="m49.22 391.99a386.841 386.841 0 0 1 70.73-198.12c34.88-49.16 87.01-89.26 154.92-119.17a27.519 27.519 0 0 1 18.45-1.335 27.647 27.647 0 0 0 -1.72-4.035l-1.22-2.31a27.634 27.634 0 0 0 -35.51-12.32c-67.91 29.91-120.04 70.01-154.92 119.17a386.841 386.841 0 0 0 -70.73 198.12 27.268 27.268 0 0 0 20.725 28.364 27.546 27.546 0 0 1 -.725-8.364z" fill="#ffd4a9"/><path d="m246.96 225.43a48.805 48.805 0 0 1 50.922-19.271c-1-.831-2.023-1.638-3.1-2.4a48.654 48.654 0 1 0 -39.412 86.961 48.471 48.471 0 0 1 -8.41-65.29z" fill="#ce5b49"/><g fill="#aa544b"><path d="m277.07 259.21-3.627-5.709a6 6 0 0 0 -10.006-.186l-3.837 5.571a5.987 5.987 0 0 0 -.559 1.006 10.012 10.012 0 0 0 1.973 10.979 10.04 10.04 0 0 0 16.575-10.636 5.981 5.981 0 0 0 -.519-1.025z"/><path d="m260.18 227.667 3.627 5.63a5.834 5.834 0 0 0 4.953 2.7h.112a5.925 5.925 0 0 0 4.941-2.517l3.837-5.531a5.245 5.245 0 0 0 .44-.984 9.729 9.729 0 0 0 -2.09-10.965 9.955 9.955 0 0 0 -16.4 10.639 6.2 6.2 0 0 0 .58 1.028z"/><path d="m296.32 236.854a10 10 0 0 0 -10.9-2.378 5.878 5.878 0 0 0 -1.02.524l-5.71 3.627a6 6 0 0 0 -.186 10.006l5.572 3.836a5.881 5.881 0 0 0 1 .557 10.006 10.006 0 0 0 10.98-1.971 10.052 10.052 0 0 0 .264-14.201z"/><path d="m261.345 243.3a6 6 0 0 0 -2.6-5.053l-5.571-3.837a6.08 6.08 0 0 0 -1-.559 10.01 10.01 0 0 0 -10.981 1.974 10.036 10.036 0 0 0 10.637 16.575 5.852 5.852 0 0 0 1.023-.519l5.71-3.627a6 6 0 0 0 2.782-4.954z"/></g><path d="m54.115 357.433a6.007 6.007 0 0 1 -5.915-7.033c.734-4.2 1.549-8.447 2.42-12.621a6 6 0 0 1 11.747 2.454c-.845 4.046-1.635 8.162-2.347 12.234a6 6 0 0 1 -5.905 4.966z" fill="#f4f8fc"/><path d="m62.7 319.635a6 6 0 0 1 -5.779-7.623 393.413 393.413 0 0 1 58.134-121.612 6 6 0 0 1 9.786 6.945 381.467 381.467 0 0 0 -56.367 117.911 6 6 0 0 1 -5.774 4.379z" fill="#f4f8fc"/></svg>